<svg width="201" height="201" viewBox="0 0 201 201" fill="none" xmlns="http://www.w3.org/2000/svg">
<path d="M146.09 0.252181C143.354 1.10197 142.435 4.02384 144.32 5.90967C144.961 6.54992 145.845 6.969 146.707 7.03884C147.37 7.0854 147.44 7.07376 147.615 6.80602C147.766 6.56156 147.778 6.35203 147.673 5.19957C147.591 4.22174 147.591 3.41851 147.696 2.26606C147.824 0.822587 147.813 0.636331 147.638 0.36859C147.417 0.031003 146.905 -0.0155606 146.09 0.252181Z" fill="#583B1F"/>
<path d="M148.732 0.74115C148.092 1.06709 147.882 1.6375 147.824 3.16246C147.754 4.85039 147.929 5.70018 148.441 6.21239C148.674 6.44521 148.942 6.59653 149.128 6.59653C149.291 6.59653 149.431 6.66638 149.431 6.73622C149.431 6.81772 149.512 8.2379 149.605 9.89091C149.768 12.871 149.768 12.8943 150.083 13.2668C150.548 13.8255 150.688 13.8954 152.12 14.2679C156.881 15.5135 160.816 17.7951 164.098 21.2175C167.893 25.1871 169.651 29.7503 168.941 33.8363C168.592 35.792 168.196 36.828 165.705 42.1596C161.945 50.1918 159.605 59.0971 158.674 68.8755C158.429 71.5296 158.324 78.2697 158.499 81.0403C158.965 88.6418 160.257 95.2655 162.585 102.075C162.969 103.205 163.283 104.171 163.283 104.229C163.283 104.276 163.074 104.439 162.806 104.59C162.55 104.741 162.178 105.09 161.968 105.381C161.665 105.812 161.584 105.87 161.432 105.742C156.671 101.854 153.319 95.7777 151.13 87.0703C150.502 84.5558 150.292 83.5896 149.419 78.8401C148.977 76.4072 148.418 73.5435 148.197 72.4842C145.997 62.147 142.865 55.8726 137.72 51.4607C134.938 49.0743 132.086 47.5609 124.461 44.4295C121.12 43.0559 119.63 42.3109 118.885 41.6241C117.313 40.1922 117.115 38.1434 118.303 35.7221C119.351 33.5802 122.866 29.7503 126.323 26.9798C128.675 25.1056 129.769 24.023 130.386 22.9637C130.642 22.5213 130.968 22.1255 131.108 22.079C131.259 22.0208 131.422 21.8811 131.492 21.753C131.55 21.6366 131.667 20.1698 131.748 18.4819C131.876 15.8976 131.923 15.4087 132.086 15.3621C132.784 15.1526 133.04 14.9431 133.273 14.4192C133.494 13.9536 133.529 13.6509 133.529 12.3006C133.529 10.8571 133.506 10.6709 133.25 10.147C133.017 9.66974 132.877 9.53004 132.493 9.40199C131.294 8.99457 129.955 10.0655 129.641 11.6953C129.513 12.3704 129.932 21.2874 130.13 21.7646C130.235 22.0324 130.2 22.1604 129.862 22.7309C129.28 23.6971 128.209 24.7447 125.974 26.5258C123.681 28.3534 120.538 31.4848 119.141 33.3474C117.593 35.3962 116.883 37.2122 116.987 38.8419C117.069 40.1806 117.418 40.9605 118.349 41.8802C119.316 42.8347 120.352 43.3586 125.159 45.3492C130.037 47.3631 132.144 48.3525 134.204 49.633C139.187 52.7179 142.632 57.0832 145.042 63.4043C146.486 67.1875 147.3 70.4936 148.837 78.8634C149.768 83.9039 150.176 85.7781 150.828 88.1994C152.946 96.0338 156.159 101.936 160.233 105.475L161.328 106.441L161.351 107.36C161.363 108.047 161.421 108.396 161.607 108.746C161.747 109.013 163.959 112.028 166.52 115.462L171.176 121.69L171.909 122.063C172.806 122.505 173.772 122.552 174.715 122.191C175.052 122.063 175.343 121.958 175.343 121.958C175.437 121.958 176.542 123.774 176.845 124.426C177.392 125.578 177.602 126.475 177.602 127.616C177.602 129.723 176.612 131.422 174.296 133.296C172.48 134.775 170.431 135.985 165.437 138.546C158.278 142.225 155.309 144.041 152.387 146.555C148.814 149.629 146.707 153.191 146.125 157.137C145.892 158.72 145.892 160.257 146.136 162.608C146.416 165.274 146.416 170.908 146.136 173.004C144.961 181.758 141.364 187.52 134.507 191.594C128.314 195.261 119.77 197.345 103.565 199.137C93.5659 200.232 84.6606 200.406 77.257 199.65C65.4181 198.439 56.0006 194.749 48.7018 188.463C44.6624 184.982 42.2643 180.291 41.6474 174.668C41.4844 173.236 41.4844 169.313 41.6357 167.649C42.0432 163.342 42.8464 159.558 45.3259 150.315C47.7472 141.259 48.6203 136.707 48.9811 131.213C49.2722 126.731 48.7949 121.97 47.6774 118.221C46.8509 115.416 44.965 111.33 42.8464 107.756C37.608 98.9091 36.6185 97.0232 35.4078 93.5426C32.4394 84.9982 33.8829 74.824 39.3075 66.0933C42.5786 60.8316 46.781 56.9086 52.0544 54.1963C61.1576 49.5166 72.263 48.0615 87.501 49.5632C91.6917 49.9706 93.6357 50.3199 95.3237 50.9717C96.9767 51.6004 98.4784 52.7761 99.4795 54.2428C101.156 56.6874 101.563 60.8083 100.597 65.5462C100.178 67.6532 99.5959 69.5856 99.3864 69.6438C98.816 69.8184 98.1757 70.2375 97.9429 70.61C97.6868 71.0291 97.6868 71.0989 97.6286 76.1511L97.5704 81.2731L85.1146 81.3313L72.6588 81.3895L71.9603 81.7271C70.4587 82.4721 69.3644 84.0785 69.12 85.9062C68.9453 87.1634 68.9453 174.354 69.1083 175.739C69.3411 177.613 70.4354 179.243 71.9836 180L72.6588 180.337H99.8404H127.022L127.779 179.977C128.954 179.406 129.886 178.358 130.386 177.043L130.631 176.379L130.666 131.213C130.689 97.5122 130.666 85.8829 130.572 85.4056C130.246 83.869 129.152 82.4139 127.825 81.7387L127.138 81.3895L114.392 81.3313L101.645 81.2731L101.587 76.1511C101.517 70.4586 101.563 70.7497 100.725 70.0861C100.376 69.8068 100.341 69.7253 100.446 69.4692C100.679 68.8522 101.47 65.453 101.645 64.3006C102.855 56.3848 100.201 51.2744 94.0665 49.7145C90.7488 48.8764 83.3335 48.2245 76.9659 48.2245C69.1316 48.2245 63.509 49.0161 57.7002 50.9485C51.6702 52.9507 47.3281 55.5815 43.3819 59.6326C41.6124 61.4486 40.5415 62.7873 39.1213 64.9176C33.4754 73.4737 31.6362 83.9389 34.267 92.623C35.338 96.1618 36.828 99.1885 40.7045 105.731C44.0221 111.295 45.5354 114.322 46.5715 117.43C48.6552 123.704 48.8065 130.735 47.0371 139.827C46.5016 142.539 45.745 145.659 44.4295 150.548C41.3331 161.991 40.6113 166.275 40.7394 172.189C40.8092 175.017 40.9023 175.902 41.3331 177.776C41.822 179.86 42.9046 182.503 43.9872 184.237C47.3281 189.569 54.755 194.691 63.3344 197.566C68.5612 199.312 74.079 200.313 80.9821 200.767C84.5791 201 91.7616 200.919 96.4063 200.593C103.251 200.104 112.715 198.928 118.489 197.845C131.12 195.494 138.546 191.489 143.028 184.645C146.462 179.394 147.813 171.735 146.916 162.585C146.695 160.362 146.753 157.859 147.033 156.555C148.197 151.223 151.887 147.056 159.209 142.795C160.012 142.33 161.921 141.294 163.458 140.49C170.85 136.637 172.259 135.846 174.109 134.46C176.438 132.714 177.672 131.166 178.23 129.304C178.475 128.489 178.475 126.812 178.23 125.869C177.986 124.927 177.264 123.39 176.542 122.296L175.972 121.411L176.333 120.701C176.799 119.805 176.857 118.722 176.473 117.884C176.112 117.081 166.997 104.951 166.508 104.636C165.949 104.264 165.076 104.019 164.471 104.054C163.865 104.089 163.912 104.147 163.283 102.413C161.002 96.0454 159.57 88.8048 159.081 81.2149C158.906 78.456 159.011 71.2386 159.256 68.7591C159.838 63.0317 160.676 58.4918 162.026 53.7423C163.342 49.0975 164.61 45.7682 166.962 40.8092C169.209 36.0481 169.616 34.6744 169.604 31.9155C169.604 30.4255 169.558 30.0064 169.313 29.0635C168.44 25.7924 166.857 23.1732 164.052 20.3794C160.862 17.1898 157.16 15.0478 152.807 13.8605C150.886 13.3366 151.026 13.4065 151.2 13.0922C151.293 12.9175 151.41 11.4857 151.538 9.09933C151.782 4.76891 151.805 3.20903 151.642 2.63863C151.235 1.17186 149.768 0.2173 148.732 0.74115ZM127.371 82.6118C128.139 82.9843 129.013 83.869 129.35 84.6257C129.513 84.9632 129.688 85.6035 129.758 86.0459C129.909 87.1401 129.909 174.4 129.758 175.611C129.548 177.183 128.815 178.312 127.522 179.01L126.789 179.406H99.8986H73.008L72.4609 179.15C71.2852 178.615 70.3423 177.381 70.0512 175.995C69.865 175.122 69.865 86.6163 70.0512 85.7316C70.3888 84.1367 71.4714 82.8679 72.8683 82.4255C73.2641 82.3091 78.3163 82.2858 100.073 82.2975L126.789 82.3208L127.371 82.6118Z" fill="#583B1F"/>
<path d="M75.8601 84.0785C75.3712 84.4976 75.1616 84.94 75.1616 85.5802C75.1616 86.2205 75.3712 86.6628 75.8834 87.0935C76.2093 87.3729 76.3374 87.4078 76.8728 87.3613C77.839 87.2798 78.4211 86.6046 78.4211 85.5802C78.4211 84.5325 77.7343 83.7759 76.7914 83.7759C76.349 83.7759 76.1511 83.8457 75.8601 84.0785Z" fill="#583B1F"/>
<path d="M74.3816 89.2355C74.079 89.3752 73.7763 89.6429 73.5668 89.9572L73.2408 90.4578L73.2059 129.455L73.1826 168.452L73.4271 168.953C73.5784 169.267 73.8694 169.593 74.1488 169.779L74.6261 170.093L99.5959 170.128C118.326 170.152 124.705 170.128 125.078 170.024C125.672 169.861 126.312 169.197 126.486 168.557C126.661 167.928 126.661 91.2377 126.486 90.6091C126.323 90.0038 125.648 89.2821 125.124 89.1307C124.833 89.0609 116.277 89.0143 99.7821 89.0143C75.5574 89.0143 74.8589 89.0259 74.3816 89.2355ZM125.113 90.1784C125.229 90.2482 125.415 90.4578 125.509 90.644C125.66 90.9467 125.683 95.3819 125.683 129.583C125.683 163.784 125.66 168.219 125.509 168.522C125.415 168.708 125.229 168.918 125.113 168.987C124.961 169.069 116.79 169.104 99.8403 169.104H74.7891L74.4515 168.766L74.1139 168.429V129.583V90.7372L74.4515 90.3996L74.7891 90.062H99.8403C116.79 90.062 124.961 90.0969 125.113 90.1784Z" fill="#583B1F"/>
<path d="M90.0038 173.574C89.5847 174.203 89.5847 175.995 89.9921 176.624L90.1784 176.903H99.9102H109.63L109.875 176.356C110.073 175.914 110.108 175.658 110.061 174.936C110.026 174.424 109.921 173.888 109.805 173.667L109.607 173.295H99.8986H90.1784L90.0038 173.574Z" fill="#583B1F"/>
<path d="M133.82 8.99453C133.669 9.18078 133.646 9.65806 133.657 12.3238C133.669 14.6753 133.715 15.4785 133.82 15.6066C134.041 15.8743 134.856 15.8394 135.659 15.5367C136.579 15.1991 137.557 14.2213 137.848 13.3599C138.383 11.7418 137.627 10.0771 135.997 9.27391C135.066 8.80827 134.088 8.69186 133.82 8.99453Z" fill="#583B1F"/>
</svg>
