<svg width="30" height="30" viewBox="0 0 30 30" fill="none" xmlns="http://www.w3.org/2000/svg">
<path d="M24.7969 24.1829H5.20312C4.58152 24.1829 3.98538 23.9359 3.54584 23.4964C3.10631 23.0569 2.85938 22.4607 2.85938 21.8391V8.15161C2.85938 7.53001 3.10631 6.93387 3.54584 6.49433C3.98538 6.05479 4.58152 5.80786 5.20312 5.80786H24.7969C25.4185 5.80786 26.0146 6.05479 26.4542 6.49433C26.8937 6.93387 27.1406 7.53001 27.1406 8.15161V21.8391C27.1406 22.4607 26.8937 23.0569 26.4542 23.4964C26.0146 23.9359 25.4185 24.1829 24.7969 24.1829ZM5.20312 6.74536C4.83016 6.74536 4.47248 6.89352 4.20876 7.15724C3.94503 7.42097 3.79688 7.77865 3.79688 8.15161V21.8391C3.79688 22.2121 3.94503 22.5698 4.20876 22.8335C4.47248 23.0972 4.83016 23.2454 5.20312 23.2454H24.7969C25.1698 23.2454 25.5275 23.0972 25.7912 22.8335C26.055 22.5698 26.2031 22.2121 26.2031 21.8391V8.15161C26.2031 7.77865 26.055 7.42097 25.7912 7.15724C25.5275 6.89352 25.1698 6.74536 24.7969 6.74536H5.20312Z" fill="#583B1F"/>
<path d="M15.4688 15.2016C15.2718 15.2013 15.0799 15.139 14.9203 15.0235L3.87189 6.98443C3.8192 6.94957 3.77411 6.90442 3.73932 6.85169C3.70452 6.79896 3.68074 6.73975 3.66941 6.6776C3.65808 6.61545 3.65942 6.55166 3.67336 6.49004C3.68731 6.42843 3.71356 6.37027 3.75055 6.31906C3.78754 6.26784 3.83449 6.22464 3.8886 6.19203C3.9427 6.15942 4.00284 6.13809 4.0654 6.12931C4.12796 6.12053 4.19165 6.12448 4.25264 6.14093C4.31363 6.15739 4.37067 6.186 4.42033 6.22505L15.4688 14.2641L25.7813 6.3938C25.8302 6.35625 25.8861 6.32871 25.9456 6.31274C26.0052 6.29678 26.0674 6.29271 26.1285 6.30076C26.1897 6.30881 26.2486 6.32883 26.3021 6.35968C26.3555 6.39052 26.4023 6.43158 26.4399 6.48052C26.4774 6.52946 26.505 6.58531 26.5209 6.64489C26.5369 6.70448 26.5409 6.76662 26.5329 6.82778C26.5248 6.88893 26.5048 6.9479 26.474 7.00132C26.4431 7.05474 26.4021 7.10156 26.3531 7.13911L16.05 15C15.8845 15.1307 15.6797 15.2017 15.4688 15.2016Z" fill="#583B1F"/>
</svg>
