<svg width="50" height="50" viewBox="0 0 50 50" fill="none" xmlns="http://www.w3.org/2000/svg">
<path d="M14.7727 0C6.62782 0 0 6.62782 0 14.7727V35.2273C0 43.3722 6.62782 50 14.7727 50H35.2273C43.3722 50 50 43.3722 50 35.2273V14.7727C50 6.62782 43.3722 0 35.2273 0H14.7727ZM14.7727 2.27273H35.2273C42.1437 2.27273 47.7273 7.85627 47.7273 14.7727V35.2273C47.7273 42.1437 42.1437 47.7273 35.2273 47.7273H14.7727C7.85627 47.7273 2.27273 42.1437 2.27273 35.2273V14.7727C2.27273 7.85627 7.85627 2.27273 14.7727 2.27273ZM38.6364 9.09091C38.0336 9.09091 37.4555 9.33036 37.0293 9.75658C36.6031 10.1828 36.3636 10.7609 36.3636 11.3636C36.3636 11.9664 36.6031 12.5445 37.0293 12.9707C37.4555 13.3969 38.0336 13.6364 38.6364 13.6364C39.2391 13.6364 39.8172 13.3969 40.2434 12.9707C40.6696 12.5445 40.9091 11.9664 40.9091 11.3636C40.9091 10.7609 40.6696 10.1828 40.2434 9.75658C39.8172 9.33036 39.2391 9.09091 38.6364 9.09091ZM25 12.5C18.1099 12.5 12.5 18.1099 12.5 25C12.5 31.8901 18.1099 37.5 25 37.5C31.8901 37.5 37.5 31.8901 37.5 25C37.5 18.1099 31.8901 12.5 25 12.5ZM25 14.7727C30.6618 14.7727 35.2273 19.3382 35.2273 25C35.2273 30.6618 30.6618 35.2273 25 35.2273C19.3382 35.2273 14.7727 30.6618 14.7727 25C14.7727 19.3382 19.3382 14.7727 25 14.7727Z" fill="#593A24"/>
</svg>
