<svg width="30" height="30" viewBox="0 0 30 30" fill="none" xmlns="http://www.w3.org/2000/svg">
<path d="M15.7688 22.6968C15.6047 22.6956 15.4425 22.6613 15.2919 22.5961C15.1413 22.5309 15.0054 22.436 14.8922 22.3172C12.8672 20.1937 8.16095 14.8172 8.16095 10.9359C8.16095 5.15623 12.7172 3.06091 15.7781 3.06091C18.8391 3.06091 23.0156 5.5031 23.0156 10.9359C23.0156 14.939 18.5766 20.2172 16.6641 22.2984C16.5526 22.4217 16.4167 22.5204 16.265 22.5882C16.1132 22.656 15.949 22.6914 15.7828 22.6922L15.7688 22.6968ZM15.7688 3.99841C13.0828 3.99841 9.08907 5.84529 9.08907 10.9359C9.08907 14.5969 14.0438 20.0765 15.5625 21.6703C15.588 21.6984 15.6192 21.7208 15.6539 21.7362C15.6886 21.7515 15.7261 21.7594 15.7641 21.7593C15.8409 21.7555 15.9132 21.7219 15.9656 21.6656C17.3953 20.1047 22.0594 14.714 22.0594 10.9359C22.0781 6.14998 18.3938 3.99841 15.7781 3.99841H15.7688Z" fill="#583B1F"/>
<path d="M15.5906 14.1937C14.8072 14.1937 14.0414 13.9614 13.3901 13.5262C12.7387 13.091 12.231 12.4723 11.9312 11.7486C11.6314 11.0248 11.553 10.2284 11.7058 9.46005C11.8586 8.6917 12.2359 7.98593 12.7898 7.43198C13.3438 6.87804 14.0496 6.50079 14.8179 6.34796C15.5862 6.19513 16.3827 6.27357 17.1064 6.57336C17.8302 6.87315 18.4488 7.38084 18.884 8.03221C19.3193 8.68358 19.5516 9.44939 19.5516 10.2328C19.5491 11.2825 19.131 12.2886 18.3887 13.0309C17.6464 13.7731 16.6404 14.1913 15.5906 14.1937ZM15.5906 7.20935C14.9927 7.20935 14.4081 7.38667 13.9109 7.71889C13.4137 8.05111 13.0262 8.52331 12.7973 9.07577C12.5685 9.62823 12.5086 10.2361 12.6253 10.8226C12.742 11.4091 13.0299 11.9478 13.4527 12.3707C13.8756 12.7935 14.4143 13.0815 15.0008 13.1981C15.5873 13.3148 16.1952 13.2549 16.7477 13.0261C17.3001 12.7972 17.7723 12.4097 18.1045 11.9125C18.4368 11.4153 18.6141 10.8308 18.6141 10.2328C18.6128 9.43131 18.2939 8.663 17.7272 8.09627C17.1604 7.52953 16.3921 7.21059 15.5906 7.20935Z" fill="#583B1F"/>
<path d="M26.0156 25.8609H5.15625C5.07321 25.8606 4.99175 25.8382 4.92021 25.796C4.84867 25.7539 4.78961 25.6935 4.74908 25.621C4.70855 25.5485 4.688 25.4666 4.68953 25.3835C4.69107 25.3005 4.71463 25.2194 4.75782 25.1484L8.4375 19.2188C8.47972 19.1512 8.53846 19.0955 8.60818 19.057C8.67789 19.0184 8.75628 18.9983 8.83594 18.9984H12.9844C13.1087 18.9984 13.2279 19.0478 13.3158 19.1357C13.4037 19.2236 13.4531 19.3429 13.4531 19.4672C13.4531 19.5915 13.4037 19.7107 13.3158 19.7986C13.2279 19.8866 13.1087 19.9359 12.9844 19.9359H9.07969L6 24.9234H25.1859L22.1813 19.9219H18.4594C18.3351 19.9219 18.2158 19.8725 18.1279 19.7846C18.04 19.6967 17.9906 19.5774 17.9906 19.4531C17.9906 19.3288 18.04 19.2096 18.1279 19.1217C18.2158 19.0338 18.3351 18.9844 18.4594 18.9844H22.4484C22.5285 18.9847 22.6072 19.0056 22.677 19.045C22.7467 19.0843 22.8052 19.141 22.8469 19.2094L26.4188 25.1531C26.4609 25.2243 26.4836 25.3054 26.4843 25.3881C26.485 25.4708 26.4638 25.5523 26.4229 25.6242C26.3819 25.6961 26.3227 25.7558 26.2511 25.7974C26.1796 25.839 26.0984 25.8609 26.0156 25.8609Z" fill="#583B1F"/>
</svg>
