<svg width="30" height="30" viewBox="0 0 30 30" fill="none" xmlns="http://www.w3.org/2000/svg">
<path fill-rule="evenodd" clip-rule="evenodd" d="M25.3228 21.6751C25.2885 22.1534 25.1496 22.6184 24.9158 23.0371L19.0111 19.199L20.1208 17.8973C20.1739 17.8338 20.2486 17.7921 20.3305 17.7802C20.4124 17.7683 20.4959 17.787 20.5649 17.8327L24.7843 20.5739C24.9678 20.6891 25.1154 20.8532 25.2105 21.0478C25.3057 21.2423 25.3446 21.4596 25.3228 21.6751ZM22.3539 24.8854C23.1712 24.6452 23.9136 24.2 24.5106 23.5922L18.5634 19.7261L18.0447 20.3361C17.9013 20.5061 17.7062 20.6246 17.4892 20.6735C17.2722 20.7224 17.0452 20.699 16.8427 20.6069C13.4612 19.0718 10.7515 16.362 9.21663 12.9803C9.12421 12.7783 9.10041 12.5515 9.14887 12.3347C9.19733 12.1179 9.31538 11.9228 9.48502 11.7793L10.095 11.2601L6.22987 5.31247C5.62323 5.91026 5.17907 6.65288 4.93937 7.47013C4.7973 7.87437 4.72984 8.30105 4.74027 8.7294C4.8691 17.3129 12.5111 24.9551 21.0958 25.0837C21.5238 25.0948 21.9502 25.0278 22.3541 24.8861L22.3539 24.8854ZM8.14939 4.50094C8.1855 4.49801 8.22259 4.49606 8.25992 4.49606C8.45753 4.49461 8.65221 4.54387 8.82535 4.63913C8.99848 4.73439 9.14429 4.87247 9.24884 5.04017L11.9906 9.2596C12.0366 9.32842 12.0555 9.41184 12.0436 9.49376C12.0317 9.57569 11.9899 9.6503 11.9262 9.70319L10.6238 10.8114L6.78691 4.90817C7.20562 4.67369 7.67093 4.53455 8.14963 4.5007L8.14939 4.50094ZM25.1581 19.9988L20.9387 17.2573C20.7293 17.1217 20.4779 17.0667 20.231 17.1026C19.9842 17.1385 19.7588 17.2629 19.5967 17.4525L17.5203 19.8925C17.4732 19.9493 17.4086 19.989 17.3367 20.0052C17.2647 20.0215 17.1893 20.0135 17.1223 19.9825C13.8943 18.5158 11.3076 15.9284 9.84175 12.6999C9.81073 12.6329 9.80278 12.5575 9.81916 12.4855C9.83554 12.4135 9.87531 12.349 9.93227 12.302L12.3703 10.2273C12.5598 10.0656 12.6843 9.84058 12.7206 9.59405C12.7568 9.34753 12.7024 9.09622 12.5674 8.88677L9.82564 4.66613C9.64238 4.37896 9.38356 4.14782 9.07758 3.99808C8.77159 3.84834 8.43027 3.78578 8.09107 3.81726C6.28599 3.96903 5.00769 5.12362 4.28815 7.25054C4.12246 7.72885 4.04323 8.23283 4.05416 8.73891C4.0936 10.9608 4.58994 13.1508 5.51228 15.1726C6.42061 17.1847 7.689 19.0138 9.25493 20.5698C10.8109 22.1354 12.64 23.4035 14.6519 24.3115C16.6737 25.2334 18.8634 25.7298 21.0851 25.7698H21.1615C21.6423 25.7725 22.1201 25.6934 22.5744 25.5359C24.6992 24.8166 25.8547 23.5368 26.0055 21.7327C26.0377 21.3937 25.9755 21.0524 25.826 20.7464C25.6765 20.4405 25.4453 20.1818 25.1581 19.9988Z" fill="#583B1F" stroke="#583B1F" stroke-width="0.2"/>
</svg>
