<svg width="198" height="198" viewBox="0 0 198 198" fill="none" xmlns="http://www.w3.org/2000/svg">
<g clip-path="url(#clip0_27_222)">
<path d="M94.0871 26.5471C89.2824 26.8283 85.5588 27.4307 83.4368 28.3143C81.7952 28.997 77.6312 32.21 76.2298 33.8567C74.7484 35.6238 72.9867 39.4392 72.4262 42.1301C71.6254 45.9857 72.1859 54.0181 73.6273 59.5605C75.7494 67.7135 79.7132 76.3484 83.5569 81.1277C90.6037 89.9634 91.885 91.7707 93.7668 95.4254C96.3693 100.647 96.6496 102.695 95.0881 105.667C94.5275 106.791 92.2453 110.486 90.1233 113.82C80.1136 129.363 75.2689 140.046 74.0277 149.243C73.1869 155.749 74.3881 162.376 77.391 167.436C78.9124 169.967 82.5559 173.461 85.3987 175.107C88.0813 176.634 87.1604 176.674 81.0745 175.308C74.8685 173.903 68.5424 171.854 62.4565 169.244C54.3687 165.79 52.2467 165.348 44.4391 165.308C39.154 165.308 36.9118 165.468 33.3484 166.191C25.2606 167.798 13.4492 172.095 6.88282 175.75C2.99907 177.959 4.20023 177.798 8.44433 175.549C21.9774 168.481 37.9128 164.625 48.8033 165.83C53.3277 166.352 57.2115 167.557 65.1391 170.85C70.7445 173.18 77.8714 175.228 83.9973 176.312C86.5598 176.794 90.2033 177.597 92.0852 178.12C97.9708 179.847 102.175 180.369 109.702 180.369C123.996 180.369 137.329 177.718 146.698 173.019C148.5 172.135 152.063 170.047 154.626 168.44C163.674 162.778 165.756 162.055 172.523 162.376C175.125 162.496 178.649 162.978 180.491 163.42C193.303 166.633 202.312 164.705 206.676 157.878C207.276 156.874 207.797 155.709 207.797 155.267C207.797 154.745 207.437 155.227 206.836 156.432C203.473 163.701 194.024 166.151 181.291 163.099C175.886 161.814 171.442 161.372 168.279 161.854C163.674 162.496 161.312 163.541 154.546 167.878C143.895 174.746 135.287 177.678 121.313 179.284C114.467 180.088 105.178 180.088 99.9327 179.324C92.926 178.28 93.006 178.039 100.293 178.039C114.146 177.999 121.594 175.67 127.359 169.605C130.522 166.272 132.124 163.3 132.124 160.81C132.124 159.926 132.484 158.119 132.965 156.793C133.966 153.862 134.046 150.126 133.125 146.592C131.483 140.126 125.598 130.367 116.188 118.599C108.581 109.04 106.499 105.586 106.499 102.374C106.499 100.687 107.14 99.6023 110.903 94.7828C118.951 84.5013 123.155 77.5934 122.795 75.3041C122.635 74.4206 123.075 73.0952 124.557 70.083C127.519 64.0587 128.24 60.8859 128.24 53.6165C128.2 48.4356 128.08 47.0299 127.199 43.6563C125.517 37.2303 122.915 32.8526 119.351 30.483C114.627 27.3504 105.298 25.9045 94.0871 26.5471ZM111.304 27.9127C119.872 29.8405 123.916 33.8968 126.599 43.1743C127.399 45.9857 127.519 47.2709 127.519 53.4157C127.519 61.7293 127.119 63.6169 124.116 69.7617C122.154 73.7378 122.074 73.8583 121.073 73.4968C119.712 72.9747 113.105 72.9747 107.3 73.537C101.294 74.0993 100.173 73.8985 97.6505 71.6895C96.2892 70.4445 95.2882 69.8822 94.5275 69.8822C93.8869 69.8822 91.6447 70.806 89.4826 71.9305C85.5188 74.0189 84.8382 74.1394 82.1956 73.296C81.4749 73.0551 81.2747 73.1354 81.2747 73.7378C81.2747 75.7861 85.9192 81.8506 94.1271 90.5658C101.574 98.4778 101.334 98.036 101.775 104.944C102.295 112.735 101.935 122.053 100.894 127.716C98.7716 139.323 96.9298 143.821 92.2453 148.44C90.6037 150.086 89.2824 151.733 89.2824 152.135C89.2824 153.299 90.1233 153.821 91.885 153.821C94.3273 153.821 96.8097 152.376 98.9718 149.645C101.815 146.07 102.655 145.668 106.619 145.869C110.103 146.07 112.185 146.913 117.95 150.367C121.554 152.576 123.716 152.094 122.354 149.444C120.553 145.99 111.824 140.969 107.62 140.969C106.019 140.969 102.655 142.496 100.093 144.383C99.0519 145.146 98.091 145.789 97.9708 145.789C97.8507 145.789 98.2111 144.664 98.7316 143.339C100.013 140.206 102.335 131.17 103.096 126.391C103.857 121.571 103.937 117.876 103.536 108.639C103.216 101.45 103.216 100.888 103.977 99.2007C104.417 98.1966 107.5 93.9394 110.863 89.7626C114.227 85.5455 118.11 80.4449 119.512 78.3966C120.913 76.3484 122.154 74.8222 122.274 75.023C123.195 76.509 118.27 84.6619 110.703 94.1804C106.699 99.2409 106.099 100.285 106.099 102.253C106.099 105.908 108.021 109.161 116.068 119.282C122.715 127.595 127.199 134.303 129.922 139.965C133.285 146.873 134.126 151.733 132.684 155.99L132.004 157.918L131.043 156.673C129.641 154.866 126.799 153.58 123.115 153.018C118.831 152.416 116.429 151.612 113.266 149.725C110.263 147.958 108.061 147.235 106.899 147.596C106.459 147.757 105.098 149.122 103.857 150.649C101.254 153.902 99.3322 155.066 95.8888 155.348C92.7258 155.589 89.843 154.946 85.9993 153.139C82.2757 151.412 81.4749 151.532 78.8323 154.143C77.431 155.548 76.7904 156.633 76.2699 158.36L75.5892 160.689L76.6302 162.858C77.2708 164.143 78.7523 165.991 80.3939 167.557C86.5198 173.34 94.8478 175.83 105.498 175.067C116.068 174.304 124.837 169.926 129.722 162.978C131.363 160.649 131.723 160.288 131.723 161.131C131.723 162.898 129.321 166.995 126.799 169.605C121.353 175.107 113.426 177.517 100.894 177.517C91.2844 177.477 89.1223 176.995 84.4378 173.862C74.4281 167.115 71.7055 154.745 76.9505 139.765C79.4329 132.656 83.1966 125.627 90.6838 113.86C92.926 110.326 95.2482 106.47 95.8488 105.305C96.8498 103.297 96.8898 103.016 96.4894 101.048C95.6086 96.7106 91.6047 89.9232 86.4797 83.939C81.3948 78.0753 78.2318 72.3321 75.5492 64.2194C73.307 57.5123 72.6664 53.8977 72.6664 47.793C72.6664 40.4031 73.9076 36.8287 77.7913 32.9731L79.5931 31.2461L80.1136 32.3707C81.555 35.3025 88.1213 36.6279 101.094 36.668C109.262 36.7082 113.226 36.3066 115.548 35.2623C117.39 34.4189 117.189 31.6477 115.228 30.3625C111.464 27.8725 95.1281 27.1897 85.2385 29.0773C83.5969 29.3987 82.2356 29.5995 82.1555 29.5191C81.8352 29.1978 85.9993 27.9528 88.9621 27.4709C93.6066 26.7479 107.22 26.9889 111.304 27.9127ZM111.864 29.6396C115.187 30.6035 116.749 31.969 116.349 33.4952C115.868 35.4632 111.784 36.1861 101.294 36.1861C87.761 36.1861 79.9935 34.3788 80.554 31.4469C80.8743 29.6396 89.2424 28.5151 100.693 28.6757C107.66 28.7962 109.582 28.9569 111.864 29.6396ZM97.2501 72.0912C98.5314 73.1755 99.8527 73.9788 100.774 74.1394C101.614 74.3001 104.898 74.2198 108.101 73.9788C117.35 73.2157 121.313 73.3764 121.313 74.5009C121.313 75.264 116.789 81.4891 110.503 89.3609C103.696 97.9155 103.376 98.4778 102.735 102.293L102.175 105.426L102.135 102.775C102.055 98.8794 100.974 97.0721 94.4474 90.124C87.801 83.0555 85.0383 79.722 83.0764 76.509C81.4749 73.8181 81.3548 73.296 82.4358 73.8985C84.0774 74.7419 86.0393 74.3402 89.9231 72.292C92.0051 71.1674 94.0871 70.2839 94.4875 70.2839C94.9279 70.2839 96.1691 71.0871 97.2501 72.0912ZM103.256 117.314C103.296 122.977 102.695 127.274 100.693 135.186C99.5724 139.644 98.8517 141.733 97.0099 146.07C96.6095 146.994 97.8908 146.592 99.8927 145.146C102.535 143.259 105.218 141.893 106.94 141.572C108.621 141.251 112.465 142.455 115.708 144.303C118.591 145.95 122.114 149.363 122.114 150.528C122.114 151.853 121.193 151.653 117.269 149.363C110.823 145.628 106.779 144.464 103.536 145.387C101.654 145.909 100.373 146.954 97.9308 149.966C96.2892 152.014 93.8468 153.38 91.8449 153.42C90.6438 153.42 89.6828 152.817 89.6828 152.094C89.6828 151.853 91.0041 150.408 92.6057 148.841C97.13 144.383 98.7716 140.648 100.934 130.045C102.055 124.664 102.215 122.776 102.455 115.065C102.615 108.237 102.735 106.912 102.936 109.241C103.056 110.888 103.216 114.543 103.256 117.314ZM112.745 150.006C116.989 152.335 118.551 152.857 122.515 153.42C127.239 154.062 129.882 155.428 131.123 157.797C131.643 158.802 131.563 159.042 130.522 160.89C128.841 163.902 125.838 166.995 122.635 169.083C116.469 173.18 109.582 174.866 100.693 174.585C97.2501 174.465 94.1672 174.143 92.6857 173.742C84.1975 171.372 76.4701 164.946 76.4701 160.207C76.4701 157.235 79.2327 153.299 81.9554 152.456C82.5559 152.255 83.597 152.576 85.2786 153.42C88.842 155.227 92.1252 155.95 95.6886 155.749C99.3722 155.508 101.494 154.504 103.336 152.135C106.94 147.395 107.66 147.235 112.745 150.006Z" fill="#583B1F" stroke="#583B1F" stroke-width="0.4"/>
</g>
<defs>
<clipPath id="clip0_27_222">
<rect width="84" height="198" fill="white" transform="translate(70)"/>
</clipPath>
</defs>
</svg>
