<svg width="50" height="50" viewBox="0 0 50 50" fill="none" xmlns="http://www.w3.org/2000/svg">
<path d="M25 0C11.206 0 0 11.206 0 25C0 29.4338 1.21596 33.5716 3.24389 37.1837L0.0403363 48.6201C-0.0108434 48.8031 -0.0131559 48.9963 0.0336295 49.1805C0.0804148 49.3647 0.174663 49.5334 0.306978 49.6698C0.439292 49.8062 0.60505 49.9055 0.787724 49.9578C0.970397 50.0102 1.1636 50.0138 1.34808 49.9682L13.2728 47.013C16.7768 48.8836 20.7528 50 25 50C38.794 50 50 38.794 50 25C50 11.206 38.794 0 25 0ZM25 2.17391C37.6191 2.17391 47.8261 12.3809 47.8261 25C47.8261 37.6191 37.6191 47.8261 25 47.8261C20.9544 47.8261 17.1653 46.7713 13.8714 44.9282C13.6305 44.7936 13.3474 44.7557 13.0796 44.8221L2.63672 47.41L5.4369 37.4193C5.47697 37.2781 5.48804 37.1303 5.46943 36.9847C5.45082 36.8391 5.40293 36.6988 5.32863 36.5723C3.32683 33.1778 2.17391 29.2284 2.17391 25C2.17391 12.3809 12.3809 2.17391 25 2.17391ZM15.9158 11.9565C15.2191 11.9565 14.224 12.2157 13.4065 13.0966C12.9155 13.6256 10.8696 15.619 10.8696 19.1236C10.8696 22.7775 13.4037 25.9303 13.7101 26.3353H13.7122V26.3375C13.6831 26.2993 14.1011 26.9046 14.6591 27.6303C15.217 28.3561 15.9972 29.3094 16.9773 30.3414C18.9376 32.4053 21.6938 34.7907 25.1146 36.2496C26.69 36.9204 27.9328 37.3255 28.8744 37.621C30.6194 38.1689 32.2088 38.0856 33.4027 37.9097C34.2963 37.7781 35.2792 37.349 36.2517 36.7336C37.2242 36.1182 38.1773 35.353 38.5976 34.1903C38.8987 33.3568 39.0517 32.5865 39.1071 31.9527C39.1348 31.6358 39.1383 31.3561 39.1177 31.0971C39.0971 30.8382 39.1191 30.6399 38.8778 30.2437C38.3717 29.4128 37.7986 29.3911 37.2007 29.0952C36.8684 28.9308 35.9225 28.4688 34.9737 28.0167C34.026 27.5651 33.2053 27.1652 32.7 26.985C32.3807 26.8701 31.9908 26.7047 31.4283 26.7684C30.8658 26.8321 30.3103 27.238 29.9868 27.7174C29.6803 28.1718 28.4461 29.6286 28.0698 30.0569C28.0648 30.0539 28.0975 30.0689 27.9488 29.9953C27.4834 29.765 26.9143 29.5692 26.0721 29.1249C25.2299 28.6806 24.1764 28.0246 23.0235 27.0083V27.0062C21.3076 25.4956 20.1057 23.599 19.7266 22.962C19.7521 22.9316 19.7235 22.9684 19.7775 22.9153L19.7796 22.9131C20.1672 22.5314 20.5106 22.0756 20.8008 21.7413C21.2122 21.2672 21.3938 20.8494 21.5905 20.459C21.9826 19.6809 21.7643 18.8247 21.5374 18.3742V18.3721C21.5531 18.4033 21.4148 18.098 21.2657 17.7458C21.1162 17.3927 20.9257 16.9348 20.7222 16.4466C20.3153 15.4701 19.8609 14.3749 19.5907 13.7334V13.7313C19.2724 12.9757 18.8417 12.4314 18.2787 12.1688C17.7157 11.9062 17.2182 11.9809 17.1981 11.9799L17.0941 11.9565C16.6923 11.938 16.3533 11.9565 15.9158 11.9565ZM15.9158 14.1304C16.3349 14.1304 16.7481 14.1355 17.0941 14.1517C17.4501 14.1694 17.4279 14.1709 17.3595 14.1389C17.2899 14.1065 17.3843 14.096 17.5866 14.5763C17.8512 15.2044 18.3078 16.3035 18.716 17.283C18.9202 17.7728 19.1112 18.2324 19.2638 18.5929C19.4163 18.9534 19.499 19.1547 19.5949 19.3466V19.3487L19.5971 19.3508C19.6911 19.5364 19.6828 19.4176 19.6501 19.4824C19.4208 19.9377 19.3896 20.0494 19.1576 20.3167C18.8043 20.7237 18.444 21.1776 18.2532 21.3655C18.0863 21.5294 17.7852 21.7848 17.5972 22.2847C17.4089 22.7854 17.4968 23.4724 17.7989 23.9852C18.2011 24.668 19.5265 26.8253 21.5863 28.6388C22.8834 29.7823 24.0919 30.5391 25.0573 31.0483C26.0227 31.5576 26.809 31.855 26.985 31.9421C27.4028 32.1489 27.8594 32.3094 28.3904 32.2457C28.9213 32.1819 29.3791 31.8598 29.6705 31.5302L29.6726 31.5281C30.0605 31.0884 31.2129 29.7725 31.7659 28.9614C31.7893 28.9697 31.7816 28.9633 31.9654 29.0294V29.0315H31.9676C32.0515 29.0614 33.1025 29.5318 34.0396 29.9783C34.9767 30.4249 35.9278 30.889 36.2368 31.0419C36.6828 31.2627 36.8936 31.4064 36.948 31.4071C36.9517 31.5027 36.9554 31.6064 36.9417 31.7638C36.9035 32.2003 36.7868 32.8046 36.5532 33.4515C36.4387 33.7682 35.8424 34.4214 35.0904 34.8972C34.3385 35.3731 33.4232 35.7093 33.0842 35.7592C32.0651 35.9093 30.8551 35.9642 29.5262 35.5469C28.6047 35.2576 27.4558 34.8833 25.9681 34.2497C22.9509 32.963 20.3865 30.7734 18.5547 28.8447C17.6388 27.8803 16.905 26.9826 16.3829 26.3035C15.8618 25.6256 15.6343 25.2729 15.4445 25.0234L15.4424 25.0212C15.1057 24.5759 13.0435 21.7074 13.0435 19.1236C13.0435 16.3891 14.3136 15.3168 15.0008 14.5763C15.3617 14.1875 15.7561 14.1304 15.9158 14.1304Z" fill="#593A24"/>
</svg>
